<?xml version="1.0" encoding="UTF-8" standalone="no"?><!DOCTYPE svg PUBLIC "-//W3C//DTD SVG 1.1//EN" "http://www.w3.org/Graphics/SVG/1.1/DTD/svg11.dtd"><svg width="100%" height="100%" viewBox="0 0 42 42" version="1.1" xmlns="http://www.w3.org/2000/svg" xmlns:xlink="http://www.w3.org/1999/xlink" xml:space="preserve" style="fill-rule:evenodd;clip-rule:evenodd;stroke-linejoin:round;stroke-miterlimit:1.41421;"><g id="ordner"><path id="Rectangle-2" d="M34.686,7.465c0,-0.399 -0.323,-0.722 -0.722,-0.722l-25.93,0c-0.397,0 -0.722,0.323 -0.722,0.722c0,0.4 0.325,0.723 0.722,0.723l25.93,0c0.399,0 0.722,-0.323 0.722,-0.723Z"/><path id="Rectangle-2-Copy" d="M35.773,10.548c0,-0.399 -0.323,-0.722 -0.722,-0.722l-28.104,0c-0.397,0 -0.722,0.323 -0.722,0.722c0,0.399 0.325,0.723 0.722,0.723l28.104,0c0.399,0 0.722,-0.324 0.722,-0.723Z"/><path id="Combined-Shape" d="M41.812,17.586l-3.908,-14.147c-0.062,-0.526 -0.522,-0.935 -1.083,-0.935l-31.574,0c-0.365,0 -0.685,0.171 -0.883,0.437c-0.127,0.125 -0.222,0.282 -0.273,0.463l-3.964,14.349c-0.082,0.251 -0.127,0.52 -0.127,0.798l0,18.385c0,1.427 1.148,2.56 2.563,2.56l36.872,0c1.419,0 2.565,-1.146 2.565,-2.56l0,-18.385c0,-0.343 -0.068,-0.668 -0.188,-0.965Zm-2.695,-1.595l-3.142,-11.374l-29.964,0l-3.143,11.374l12.117,0l0,0.739c0,0.655 0.517,1.188 1.198,1.188l9.633,0c0.661,0 1.197,-0.526 1.197,-1.188l0,-0.739l12.104,0Zm-8.838,13.559c0.101,0.2 0.158,0.424 0.158,0.661c0,0.818 -0.679,1.483 -1.516,1.483l-15.687,0c-0.142,0 -0.281,-0.02 -0.41,-0.056c-0.08,-0.013 -0.16,-0.033 -0.239,-0.059c-0.791,-0.266 -1.212,-1.11 -0.94,-1.884l1.285,-3.649c0.272,-0.773 1.135,-1.185 1.927,-0.918c0.791,0.265 1.214,1.11 0.94,1.883l-0.604,1.718l11.589,0l-0.597,-1.694c-0.272,-0.776 0.149,-1.619 0.94,-1.886c0.792,-0.265 1.655,0.145 1.927,0.921l1.227,3.48Z"/><path id="Rectangle-2-Copy1" d="M36.662,13.631c0,-0.399 -0.323,-0.722 -0.722,-0.722l-30.079,0c-0.4,0 -0.723,0.323 -0.723,0.722c0,0.399 0.323,0.723 0.723,0.723l30.079,0c0.399,0 0.722,-0.324 0.722,-0.723Z"/></g></svg>