<?xml version="1.0" encoding="UTF-8" standalone="no"?><!DOCTYPE svg PUBLIC "-//W3C//DTD SVG 1.1//EN" "http://www.w3.org/Graphics/SVG/1.1/DTD/svg11.dtd"><svg width="100%" height="100%" viewBox="0 0 518 298" version="1.1" xmlns="http://www.w3.org/2000/svg" xmlns:xlink="http://www.w3.org/1999/xlink" xml:space="preserve" style="fill-rule:evenodd;clip-rule:evenodd;stroke-linejoin:round;stroke-miterlimit:1.41421;"><path d="M93.06,278.82l331.81,0l0.39,5.73l-332.62,0l0.42,-5.73Z" style="fill-opacity:0.1;fill-rule:nonzero;"/><path d="M93.46,278.82l330.99,0l0.39,5.73l-331.78,0l0.4,-5.73Z" style="fill:url(#_Linear1);fill-rule:nonzero;"/><path d="M456.22,18.13l0,247.54l-394.54,0l0,-247.54l394.54,0Zm0,-1.44l-394.54,0c-0.788,0.005 -1.435,0.652 -1.44,1.44l0,247.54c0.005,0.788 0.652,1.435 1.44,1.44l394.54,0c0.788,-0.005 1.435,-0.652 1.44,-1.44l0,-247.54c-0.005,-0.788 -0.652,-1.435 -1.44,-1.44l0,0Z" style="fill-opacity:0.05;fill-rule:nonzero;"/><path d="M259,9.23c1.147,0 2.09,0.943 2.09,2.09c0,1.147 -0.943,2.09 -2.09,2.09c-1.147,0 -2.09,-0.943 -2.09,-2.09c0,-0.003 0,-0.007 0,-0.01c0,-1.141 0.939,-2.08 2.08,-2.08c0.003,0 0.007,0 0.01,0Z" style="fill-rule:nonzero;"/><path d="M259,9.13c1.147,0 2.09,0.943 2.09,2.09c0,1.147 -0.943,2.09 -2.09,2.09c-1.147,0 -2.09,-0.943 -2.09,-2.09c0,-0.003 0,-0.007 0,-0.01c0,-1.141 0.939,-2.08 2.08,-2.08c0.003,0 0.007,0 0.01,0Z" style="fill:#231f20;fill-rule:nonzero;"/><path d="M259,9.42c0.003,0 0.007,0 0.01,0c0.971,0 1.77,0.799 1.77,1.77c0,0.971 -0.799,1.77 -1.77,1.77c-0.971,0 -1.77,-0.799 -1.77,-1.77c0,-0.003 0,-0.007 0,-0.01c0,-0.966 0.794,-1.76 1.76,-1.76c0,0 0,0 0,0Z" style="fill:#010101;fill-rule:nonzero;"/><path d="M259,10.08c0.609,0 1.11,0.501 1.11,1.11c0,0.609 -0.501,1.11 -1.11,1.11c-0.609,0 -1.11,-0.501 -1.11,-1.11c0,-0.003 0,-0.007 0,-0.01c0,-0.603 0.497,-1.1 1.1,-1.1c0.003,0 0.007,0 0.01,0Z" style="fill:#010101;fill-rule:nonzero;"/><path d="M259,10.37c0.45,0 0.82,0.37 0.82,0.82c0,0.45 -0.37,0.82 -0.82,0.82c-0.45,0 -0.82,-0.37 -0.82,-0.82c0,-0.003 0,-0.007 0,-0.01c0,-0.444 0.366,-0.81 0.81,-0.81c0.003,0 0.007,0 0.01,0Z" style="fill:url(#_Linear2);fill-rule:nonzero;"/><path d="M259,10.54c0.2,0 0.36,0.1 0.36,0.26c0,0.16 -0.16,0.26 -0.36,0.26c-0.2,0 -0.36,-0.1 -0.36,-0.26c0,-0.16 0.16,-0.26 0.36,-0.26Z" style="fill-rule:nonzero;"/><path d="M454.82,1.44c8.841,0.011 16.11,7.289 16.11,16.13c0,0.01 0,0.02 0,0.03l0,259.06c-0.01,1.761 -0.349,3.504 -1,5.14c-0.292,0.758 -1.018,1.265 -1.83,1.28l-418.32,0c-0.794,-0.034 -1.495,-0.539 -1.78,-1.28c-0.648,-1.637 -0.987,-3.38 -1,-5.14l0,-259.06c-0.016,-8.845 7.245,-16.138 16.09,-16.16l391.73,0Zm0,-1.44l-391.77,0c-9.64,0.016 -17.561,7.96 -17.55,17.6l0,259.06c-0.001,1.938 0.365,3.859 1.08,5.66c0.494,1.313 1.757,2.189 3.16,2.19l418.38,0c1.403,-0.001 2.666,-0.877 3.16,-2.19c0.712,-1.802 1.078,-3.722 1.08,-5.66l0,-259.06c0,-0.013 0,-0.027 0,-0.04c0,-9.626 -7.914,-17.549 -17.54,-17.56Z" style="fill:#e5e6e7;fill-rule:nonzero;"/><path d="M454.82,1.44c8.841,0.011 16.11,7.289 16.11,16.13c0,0.01 0,0.02 0,0.03l0,259.06c-0.01,1.761 -0.349,3.504 -1,5.14c-0.292,0.758 -1.018,1.265 -1.83,1.28l-418.32,0c-0.794,-0.034 -1.495,-0.539 -1.78,-1.28c-0.648,-1.637 -0.987,-3.38 -1,-5.14l0,-259.06c-0.016,-8.845 7.245,-16.138 16.09,-16.16l391.73,0Zm0,-0.79l-391.77,0c-9.69,0 -16.9,7.89 -16.9,17.6l0,258.4c-0.001,1.938 0.365,3.859 1.08,5.66c0.52,1.34 1.11,2.19 2.51,2.19l417.73,0c1.403,-0.001 2.666,-0.877 3.16,-2.19c0.712,-1.802 1.078,-3.722 1.08,-5.66l0,-257.74c0,-10.63 -7.11,-18.13 -16.9,-18.26l0.01,0Z" style="fill:url(#_Linear3);fill-rule:nonzero;"/><path d="M468.16,283.11c0.812,-0.015 1.538,-0.522 1.83,-1.28c0.648,-1.637 0.987,-3.38 1,-5.14l0,-259.09c0,-0.01 0,-0.02 0,-0.03c0,-8.849 -7.281,-16.13 -16.13,-16.13c-0.003,0 -0.007,0 -0.01,0l-391.76,0c-8.845,0.022 -16.106,7.315 -16.09,16.16l0,259.06c0.007,1.761 0.346,3.505 1,5.14c0.292,0.758 1.018,1.265 1.83,1.28l418.33,0l0,0.03Zm-406.47,-265l394.53,0l0,247.56l-394.54,0l0.01,-247.56Z" style="fill:#0e1316;fill-rule:nonzero;"/><path d="M0.52,281.93l516.89,0c0.285,0 0.52,0.235 0.52,0.52l0,8.55c0,0.285 -0.235,0.52 -0.52,0.52l-516.89,0c-0.285,0 -0.52,-0.235 -0.52,-0.52l0,-8.57c0.01,-0.281 0.239,-0.51 0.52,-0.52l0,0.02Z" style="fill:url(#_Linear4);fill-rule:nonzero;"/><path d="M0.26,291.58l517.38,0c-3.446,2.111 -7.182,3.708 -11.09,4.74c-4.464,1 -9.025,1.506 -13.6,1.51l-467.95,0c-4.435,-0.028 -8.854,-0.534 -13.18,-1.51c-4.023,-1.084 -7.891,-2.677 -11.51,-4.74l-0.05,0Z" style="fill:url(#_Linear5);fill-rule:nonzero;"/><path d="M233,282l62.27,0c0,3.4 -2.32,6.15 -5.15,6.15l-62.3,0c-2.84,0 -5.12,-2.75 -5.15,-6.15l10.33,0Z" style="fill-rule:nonzero;"/><path d="M233.1,282l61.9,0c0,3.3 -2.32,6 -5.12,6l-61.88,0c-2.81,0 -5.09,-2.68 -5.12,-6l10.22,0Z" style="fill:url(#_Linear6);fill-rule:nonzero;"/><path d="M339.83,295c-1.44,0 -2.58,-0.07 -2.58,0.13c1.616,0.827 3.534,0.827 5.15,0c0,-0.2 -1.14,-0.13 -2.58,-0.13l0.01,0Zm-161.76,0c-1.44,0 -2.58,-0.07 -2.58,0.13c1.616,0.827 3.534,0.827 5.15,0c0,-0.2 -1.14,-0.13 -2.58,-0.13l0.01,0Z" style="fill:url(#_Linear7);fill-rule:nonzero;"/><path d="M339.83,294.69c-1.44,0 -2.58,0.16 -2.58,0.39c0,0.23 1.14,0.39 2.58,0.39c1.44,0 2.58,-0.16 2.58,-0.39c0,-0.23 -1.14,-0.39 -2.58,-0.39Zm-161.76,0c-1.44,0 -2.58,0.16 -2.58,0.39c0,0.23 1.14,0.39 2.58,0.39c1.44,0 2.58,-0.16 2.58,-0.39c0,-0.23 -1.14,-0.39 -2.58,-0.39Z" style="fill:#424143;fill-rule:nonzero;"/><rect x="1.83" y="291.98" width="514.28" height="0.38" style="fill:url(#_Linear8);fill-rule:nonzero;"/><path d="M283,1.44l132.25,280.25l54.7,0.11l1,-5.14l-0.06,-260.79c-0.309,-3.689 -1.957,-7.14 -4.63,-9.7c-2.618,-2.77 -6.196,-4.441 -10,-4.67l-173.26,-0.06Z" style="fill-opacity:0.1;fill-rule:nonzero;"/><path d="M408.25,265.69l48.68,0.22l0.29,-247.41l-166.22,-0.06l117.25,247.25" style="fill:url(#_Linear9);fill-rule:nonzero;"/><defs><linearGradient id="_Linear1" x1="0" y1="0" x2="1" y2="0" gradientUnits="userSpaceOnUse" gradientTransform="matrix(1.82448e-16,2.9796,-2.9796,1.82448e-16,264.93,276.78)"><stop offset="0%" style="stop-color:#010101;stop-opacity:1"/><stop offset="100%" style="stop-color:#262b31;stop-opacity:1"/></linearGradient><linearGradient id="_Linear2" x1="0" y1="0" x2="1" y2="0" gradientUnits="userSpaceOnUse" gradientTransform="matrix(1.6463,0,0,1.6463,258.512,9.1528)"><stop offset="0%" style="stop-color:#67308f;stop-opacity:1"/><stop offset="100%" style="stop-color:#1d76bb;stop-opacity:1"/></linearGradient><linearGradient id="_Linear3" x1="0" y1="0" x2="1" y2="0" gradientUnits="userSpaceOnUse" gradientTransform="matrix(1.70338e-14,-278.183,278.183,1.70338e-14,255.856,282.287)"><stop offset="0%" style="stop-color:#808184;stop-opacity:1"/><stop offset="50%" style="stop-color:#f1f1f2;stop-opacity:1"/><stop offset="100%" style="stop-color:#bbbdbf;stop-opacity:1"/></linearGradient><linearGradient id="_Linear4" x1="0" y1="0" x2="1" y2="0" gradientUnits="userSpaceOnUse" gradientTransform="matrix(517.93,0,0,517.93,6.4786,286.924)"><stop offset="0%" style="stop-color:#929497;stop-opacity:1"/><stop offset="1%" style="stop-color:#fff;stop-opacity:1"/><stop offset="3%" style="stop-color:#bbbdbf;stop-opacity:1"/><stop offset="5%" style="stop-color:#f1f1f2;stop-opacity:1"/><stop offset="95%" style="stop-color:#f1f1f2;stop-opacity:1"/><stop offset="97%" style="stop-color:#bbbdbf;stop-opacity:1"/><stop offset="99%" style="stop-color:#fff;stop-opacity:1"/><stop offset="100%" style="stop-color:#929497;stop-opacity:1"/></linearGradient><linearGradient id="_Linear5" x1="0" y1="0" x2="1" y2="0" gradientUnits="userSpaceOnUse" gradientTransform="matrix(3.75048e-16,6.125,-6.125,3.75048e-16,259.778,291.75)"><stop offset="0%" style="stop-color:#808184;stop-opacity:1"/><stop offset="100%" style="stop-color:#424143;stop-opacity:1"/></linearGradient><linearGradient id="_Linear6" x1="0" y1="0" x2="1" y2="0" gradientUnits="userSpaceOnUse" gradientTransform="matrix(72.19,0,0,72.19,220.33,283.839)"><stop offset="0%" style="stop-color:#929497;stop-opacity:1"/><stop offset="20%" style="stop-color:#d1d2d3;stop-opacity:1"/><stop offset="50%" style="stop-color:#fff;stop-opacity:1"/><stop offset="80%" style="stop-color:#d1d2d3;stop-opacity:1"/><stop offset="100%" style="stop-color:#929497;stop-opacity:1"/></linearGradient><linearGradient id="_Linear7" x1="0" y1="0" x2="1" y2="0" gradientUnits="userSpaceOnUse" gradientTransform="matrix(1.6463,0,0,1.6463,258.512,9.1528)"><stop offset="0%" style="stop-color:#67308f;stop-opacity:1"/><stop offset="100%" style="stop-color:#1d76bb;stop-opacity:1"/></linearGradient><linearGradient id="_Linear8" x1="0" y1="0" x2="1" y2="0" gradientUnits="userSpaceOnUse" gradientTransform="matrix(514.28,0,0,514.28,2.8984,293.027)"><stop offset="0%" style="stop-color:#fff;stop-opacity:0"/><stop offset="50%" style="stop-color:#fff;stop-opacity:1"/><stop offset="100%" style="stop-color:#fff;stop-opacity:0"/></linearGradient><linearGradient id="_Linear9" x1="0" y1="0" x2="1" y2="0" gradientUnits="userSpaceOnUse" gradientTransform="matrix(-148.64,-257.45,257.45,-148.64,492.4,245.43)"><stop offset="0%" style="stop-color:#fff;stop-opacity:0.0164706"/><stop offset="100%" style="stop-color:#000;stop-opacity:0.0521569"/></linearGradient></defs></svg>