<?xml version="1.0" encoding="UTF-8" standalone="no"?><!DOCTYPE svg PUBLIC "-//W3C//DTD SVG 1.1//EN" "http://www.w3.org/Graphics/SVG/1.1/DTD/svg11.dtd"><svg width="805" height="505" viewBox="0 0 960 600" version="1.1" xmlns="http://www.w3.org/2000/svg" xmlns:xlink="http://www.w3.org/1999/xlink" xml:space="preserve" style="fill-rule:evenodd;clip-rule:evenodd;stroke-linejoin:round;stroke-miterlimit:1.41421;"><path id="Shape" d="M-115.418,-75l1075.07,0l0,675l-1075.07,0l0,-675Z" style="fill:url(#_Radial1);"/><g><path d="M167.028,197.508c-2.592,-2.736 -5.616,-4.968 -10.224,-5.472l0,-7.128l-4.32,0l0,7.2c-6.264,1.008 -10.44,5.616 -10.44,12.024c0,14.04 20.088,11.52 20.088,23.184c0,4.464 -2.664,7.416 -7.992,7.416c-4.392,0 -8.064,-2.16 -11.16,-4.824l-2.736,4.104c3.024,2.808 7.632,5.112 12.24,5.544l0,7.128l4.32,0l0,-7.272c6.84,-0.936 11.16,-5.688 11.16,-12.528c0,-15.48 -20.088,-12.6 -20.088,-23.04c0,-4.176 2.808,-6.912 7.2,-6.912c3.888,0 6.12,1.512 8.784,4.104l3.168,-3.528Z" style="fill:#6db6f0;fill-rule:nonzero;"/><path d="M198.276,238.764l6.912,0l4.896,-18.72c0.936,-3.312 1.656,-6.624 2.448,-10.152l0.288,0c0.864,3.528 1.512,6.768 2.376,10.08l5.04,18.792l7.2,0l9.36,-34.992l-5.616,0l-5.112,20.232c-0.72,3.312 -1.368,6.48 -2.16,9.72l-0.288,0c-0.792,-3.24 -1.584,-6.408 -2.448,-9.72l-5.472,-20.232l-5.76,0l-5.4,20.232c-0.864,3.24 -1.584,6.48 -2.376,9.72l-0.288,0c-0.648,-3.24 -1.296,-6.408 -2.088,-9.72l-5.184,-20.232l-6.048,0l9.72,34.992Z" style="fill:#6db6f0;fill-rule:nonzero;"/><path d="M247.452,196.572c2.304,0 4.104,-1.584 4.104,-3.816c0,-2.304 -1.8,-3.816 -4.104,-3.816c-2.304,0 -4.104,1.512 -4.104,3.816c0,2.232 1.8,3.816 4.104,3.816Zm-3.024,42.192l5.904,0l0,-34.992l-5.904,0l0,34.992Z" style="fill:#6db6f0;fill-rule:nonzero;"/><path d="M262.14,238.764l5.904,0l0,-22.464c2.376,-5.904 5.904,-8.064 8.856,-8.064c1.44,0 2.232,0.216 3.384,0.576l1.152,-5.184c-1.152,-0.504 -2.232,-0.72 -3.744,-0.72c-3.96,0 -7.56,2.808 -9.936,7.2l-0.216,0l-0.504,-6.336l-4.896,0l0,34.992Z" style="fill:#6db6f0;fill-rule:nonzero;"/><path d="M283.812,221.34c0,11.448 7.416,18.288 16.776,18.288c4.752,0 8.496,-1.656 11.52,-3.6l-2.088,-3.888c-2.592,1.656 -5.4,2.736 -8.712,2.736c-6.696,0 -11.232,-4.752 -11.664,-12.312l23.616,0c0.144,-0.864 0.216,-2.016 0.216,-3.24c0,-10.008 -5.04,-16.416 -13.968,-16.416c-7.992,0 -15.696,6.984 -15.696,18.432Zm5.76,-2.664c0.72,-7.056 5.184,-11.088 10.08,-11.088c5.472,0 8.64,3.96 8.64,11.088l-18.72,0Z" style="fill:#6db6f0;fill-rule:nonzero;"/><path d="M318.228,234.804c3.312,2.736 8.064,4.824 13.032,4.824c8.28,0 12.816,-4.752 12.816,-10.44c0,-6.624 -5.616,-8.712 -10.656,-10.584c-3.96,-1.512 -7.776,-2.808 -7.776,-6.048c0,-2.664 2.016,-5.04 6.408,-5.04c3.096,0 5.616,1.296 7.992,3.096l2.808,-3.744c-2.664,-2.16 -6.48,-3.96 -10.872,-3.96c-7.56,0 -12.024,4.32 -12.024,9.936c0,5.904 5.472,8.28 10.44,10.08c3.816,1.44 7.992,3.024 7.992,6.624c0,3.024 -2.304,5.472 -6.912,5.472c-4.176,0 -7.272,-1.728 -10.296,-4.176l-2.952,3.96Z" style="fill:#6db6f0;fill-rule:nonzero;"/><path d="M352.284,238.764l5.904,0l0,-25.344c3.528,-3.528 5.976,-5.4 9.576,-5.4c4.608,0 6.624,2.808 6.624,9.36l0,21.384l5.904,0l0,-22.176c0,-8.928 -3.312,-13.68 -10.656,-13.68c-4.824,0 -8.352,2.592 -11.664,5.76l0.216,-7.2l0,-13.968l-5.904,0l0,51.264Z" style="fill:#6db6f0;fill-rule:nonzero;"/><path d="M388.86,221.34c0,11.448 7.416,18.288 16.776,18.288c4.752,0 8.496,-1.656 11.52,-3.6l-2.088,-3.888c-2.592,1.656 -5.4,2.736 -8.712,2.736c-6.696,0 -11.232,-4.752 -11.664,-12.312l23.616,0c0.144,-0.864 0.216,-2.016 0.216,-3.24c0,-10.008 -5.04,-16.416 -13.968,-16.416c-7.992,0 -15.696,6.984 -15.696,18.432Zm5.76,-2.664c0.72,-7.056 5.184,-11.088 10.08,-11.088c5.472,0 8.64,3.96 8.64,11.088l-18.72,0Z" style="fill:#6db6f0;fill-rule:nonzero;"/><path d="M427.164,231.708c0,5.112 1.8,7.92 6.264,7.92c1.584,0 2.592,-0.216 3.384,-0.576l-0.792,-4.464c-0.648,0.144 -0.936,0.144 -1.296,0.144c-0.864,0 -1.656,-0.72 -1.656,-2.592l0,-44.64l-5.904,0l0,44.208Z" style="fill:#6db6f0;fill-rule:nonzero;"/><path d="M445.524,231.708c0,5.112 1.8,7.92 6.264,7.92c1.584,0 2.592,-0.216 3.384,-0.576l-0.792,-4.464c-0.648,0.144 -0.936,0.144 -1.296,0.144c-0.864,0 -1.656,-0.72 -1.656,-2.592l0,-44.64l-5.904,0l0,44.208Z" style="fill:#6db6f0;fill-rule:nonzero;"/><path d="M478.428,231.708c0,5.112 1.8,7.92 6.264,7.92c1.584,0 2.592,-0.216 3.384,-0.576l-0.792,-4.464c-0.648,0.144 -0.936,0.144 -1.296,0.144c-0.864,0 -1.656,-0.72 -1.656,-2.592l0,-44.64l-5.904,0l0,44.208Z" style="fill:#6db6f0;fill-rule:nonzero;"/><path d="M499.812,196.572c2.304,0 4.104,-1.584 4.104,-3.816c0,-2.304 -1.8,-3.816 -4.104,-3.816c-2.304,0 -4.104,1.512 -4.104,3.816c0,2.232 1.8,3.816 4.104,3.816Zm-3.024,42.192l5.904,0l0,-34.992l-5.904,0l0,34.992Z" style="fill:#6db6f0;fill-rule:nonzero;"/><path d="M510.612,234.804c3.312,2.736 8.064,4.824 13.032,4.824c8.28,0 12.816,-4.752 12.816,-10.44c0,-6.624 -5.616,-8.712 -10.656,-10.584c-3.96,-1.512 -7.776,-2.808 -7.776,-6.048c0,-2.664 2.016,-5.04 6.408,-5.04c3.096,0 5.616,1.296 7.992,3.096l2.808,-3.744c-2.664,-2.16 -6.48,-3.96 -10.872,-3.96c-7.56,0 -12.024,4.32 -12.024,9.936c0,5.904 5.472,8.28 10.44,10.08c3.816,1.44 7.992,3.024 7.992,6.624c0,3.024 -2.304,5.472 -6.912,5.472c-4.176,0 -7.272,-1.728 -10.296,-4.176l-2.952,3.96Z" style="fill:#6db6f0;fill-rule:nonzero;"/><path d="M545.676,227.964c0,6.912 2.52,11.664 10.008,11.664c2.16,0 4.536,-0.648 6.48,-1.296l-1.152,-4.464c-1.152,0.432 -2.736,0.936 -3.96,0.936c-4.032,0 -5.4,-2.448 -5.4,-6.768l0,-19.44l9.432,0l0,-4.824l-9.432,0l0,-9.792l-4.968,0l-0.72,9.792l-5.472,0.36l0,4.464l5.184,0l0,19.368Z" style="fill:#6db6f0;fill-rule:nonzero;"/></g><defs><radialGradient id="_Radial1" cx="0" cy="0" r="1" gradientUnits="userSpaceOnUse" gradientTransform="matrix(1258.26,0,0,1262.26,-85.1695,-54.1558)"><stop offset="0%" style="stop-color:#67308f;stop-opacity:1"/><stop offset="100%" style="stop-color:#d91f5d;stop-opacity:1"/></radialGradient></defs></svg>
