<?xml version="1.0" encoding="UTF-8" standalone="no"?><!DOCTYPE svg PUBLIC "-//W3C//DTD SVG 1.1//EN" "http://www.w3.org/Graphics/SVG/1.1/DTD/svg11.dtd"><svg width="100%" height="100%" viewBox="0 0 16 16" version="1.1" xmlns="http://www.w3.org/2000/svg" xmlns:xlink="http://www.w3.org/1999/xlink" xml:space="preserve"><path d="M7.986,13.544l-1.599,-10.706c0,0 1.038,-0.444 1.599,-0.444c0.505,0 1.599,0.444 1.599,0.444l-1.599,10.706Zm-0.504,-0.017l-4.69,-9.41c0,0 0.825,-0.722 1.343,-0.89c0.467,-0.152 1.61,-0.07 1.61,-0.07l1.737,10.37Zm1.05,0l1.736,-10.37c0,0 1.092,-0.098 1.61,0.07c0.467,0.151 1.344,0.89 1.344,0.89l-4.69,9.41Zm0.837,-0.697l4.438,-8.171c0,0 0.941,0.232 1.326,0.522c0.346,0.261 0.867,1.131 0.867,1.131l-6.631,6.518Zm0.369,0.259l2.177,-1.894c0,0 0.335,0.593 0.459,0.934c0.111,0.307 0.248,1.011 0.248,1.011l-2.884,-0.051Zm-3.503,0l-2.884,0.051c0,0 0.124,-0.67 0.248,-1.011c0.112,-0.307 0.459,-0.934 0.459,-0.934l2.177,1.894Zm0.396,-0.259l-6.631,-6.518c0,0 0.482,-0.841 0.867,-1.131c0.347,-0.261 1.326,-0.522 1.326,-0.522l4.438,8.171Z"/></svg>
