<?xml version="1.0" encoding="utf-8"?><!DOCTYPE svg PUBLIC "-//W3C//DTD SVG 1.1//EN" "http://www.w3.org/Graphics/SVG/1.1/DTD/svg11.dtd"><svg xmlns="http://www.w3.org/2000/svg" xmlns:xlink="http://www.w3.org/1999/xlink"><symbol viewBox="0 0 20 32" aria-labelledby="aicon--arrow-left-desc aicon--arrow-left-title" id="icon--arrow-left"><title id="aicon--arrow-left-title">Back</title><desc id="aicon--arrow-left-desc">A leftward arrow</desc><path d="M16 32l4-4L8 16 20 4l-4-4L0 16z"/></symbol><symbol viewBox="0 0 20 32" fill-rule="evenodd" clip-rule="evenodd" stroke-linejoin="round" stroke-miterlimit="1.414" aria-labelledby="bicon--arrow-right-desc bicon--arrow-right-title" id="icon--arrow-right"><title id="bicon--arrow-right-title">Error</title><desc id="bicon--arrow-right-desc">A rightward arrow</desc><path d="M4 0L0 4l12 12L0 28l4 4 16-16L4 0z" fill-rule="nonzero"/></symbol><symbol viewBox="0 0 42 42" fill-rule="evenodd" clip-rule="evenodd" stroke-linejoin="round" stroke-miterlimit="1.414" id="icon--documentation"><path d="M34.686 7.465a.722.722 0 0 0-.722-.722H8.034a.723.723 0 0 0 0 1.445h25.93a.722.722 0 0 0 .722-.723zM35.773 10.548a.722.722 0 0 0-.722-.722H6.947a.723.723 0 0 0 0 1.445h28.104a.723.723 0 0 0 .722-.723z"/><path d="M41.812 17.586L37.904 3.439a1.078 1.078 0 0 0-1.083-.935H5.247c-.365 0-.685.171-.883.437a1.043 1.043 0 0 0-.273.463L.127 17.753a2.57 2.57 0 0 0-.127.798v18.385a2.553 2.553 0 0 0 2.563 2.56h36.872A2.56 2.56 0 0 0 42 36.936V18.551c0-.343-.068-.668-.188-.965zm-2.695-1.595L35.975 4.617H6.011L2.868 15.991h12.117v.739c0 .655.517 1.188 1.198 1.188h9.633c.661 0 1.197-.526 1.197-1.188v-.739h12.104zM30.279 29.55c.101.2.158.424.158.661 0 .818-.679 1.483-1.516 1.483H13.234c-.142 0-.281-.02-.41-.056a1.573 1.573 0 0 1-.239-.059 1.475 1.475 0 0 1-.94-1.884l1.285-3.649c.272-.773 1.135-1.185 1.927-.918.791.265 1.214 1.11.94 1.883l-.604 1.718h11.589l-.597-1.694a1.477 1.477 0 0 1 .94-1.886c.792-.265 1.655.145 1.927.921l1.227 3.48z"/><path d="M36.662 13.631a.722.722 0 0 0-.722-.722H5.861a.722.722 0 1 0 0 1.445H35.94a.723.723 0 0 0 .722-.723z"/></symbol><symbol viewBox="0 0 42 42" id="icon--github"><path d="M38.59 12.702c.339-.829 1.45-4.173-.352-8.691 0 0-2.762-.874-9.017 3.401-2.62-.721-5.436-.828-8.22-.828-2.784 0-5.597.107-8.224.83-6.254-4.277-9.014-3.403-9.014-3.403-1.801 4.52-.688 7.862-.35 8.691C1.293 14.994 0 17.919 0 21.506c0 13.503 8.747 16.556 20.953 16.556C33.164 38.062 42 35.009 42 21.506c0-3.587-1.292-6.512-3.412-8.804h.002zM21.002 35.478c-8.67 0-15.7-.405-15.7-8.805 0-2.007.987-3.88 2.68-5.428 2.82-2.583 7.6-1.218 13.02-1.218 5.425 0 10.198-1.365 13.02 1.216 1.695 1.55 2.684 3.418 2.684 5.427 0 8.403-7.034 8.808-15.704 8.808zM14.406 22.33c-1.742 0-3.154 2.095-3.154 4.684s1.412 4.688 3.154 4.688c1.737 0 3.15-2.099 3.15-4.688 0-2.589-1.413-4.684-3.15-4.684zm13.195 0c-1.739 0-3.153 2.095-3.153 4.684s1.414 4.688 3.153 4.688c1.738 0 3.149-2.099 3.149-4.688.004-2.589-1.409-4.684-3.149-4.684z"/></symbol><symbol viewBox="0 0 82 94" id="icon--github2"><path d="M27.97 71.67l.005-1.329c.565-3.96 2.121-6.647 3.889-8.132-13.435-1.556-27.507-6.717-27.577-29.84.07-6.576 2.404-12.021 6.293-16.193-.707-1.555-2.758-7.707.566-15.98 0 0 5.02-1.627 16.617 6.152 4.737-1.344 9.899-1.98 15.061-2.051 5.091 0 10.324.707 15.132 2.121C69.482-1.431 74.573.125 74.573.125c3.253 8.344 1.202 14.496.566 15.981 3.889 4.313 6.222 9.616 6.222 16.263 0 23.193-14.142 28.284-27.577 29.84 2.121 1.839 4.101 5.516 4.101 11.172l-.07 16.476c0 1.5 3.319 3.002 4.135 3.182h.178c-.008.025-.072.024-.178 0H24.292c-.042.011-.065.011-.065 0h.065c.494-.127 3.612-1.679 3.612-3.111l.037-10.249C12.36 82.443 9.095 72.25 9.095 72.25c-2.758-7-6.718-8.839-6.718-8.839-5.586-3.748.425-3.677.425-3.677 6.01.495 9.263 6.293 9.263 6.293 4.739 7.94 11.781 7.147 15.905 5.643z"/></symbol><symbol viewBox="0 0 16 16" id="icon--location"><path d="M8 0a5 5 0 0 0-5 5c0 5 5 11 5 11s5-6 5-11a5 5 0 0 0-5-5zm0 8a3 3 0 1 1 0-6 3 3 0 0 1 0 6z"/></symbol><symbol viewBox="0 0 81 56" id="icon--logo"><path d="M40.04 56.162L32.046 2.63S37.236.41 40.04.41c2.526 0 7.994 2.22 7.994 2.22L40.04 56.162zm-2.52-.09L14.07 9.025s4.127-3.61 6.716-4.45c2.333-.76 8.05-.35 8.05-.35l8.684 51.848v-.001zm5.25 0l8.683-51.846s5.46-.493 8.05.348c2.333.758 6.718 4.45 6.718 4.45l-23.45 47.05-.001-.002zm4.187-3.483l22.187-40.854s4.71 1.16 6.632 2.61C77.508 15.649 80.111 20 80.111 20L46.958 52.59l-.001-.001zm1.843 1.294l10.886-9.467s1.673 2.965 2.294 4.67c.56 1.535 1.244 5.05 1.244 5.05L48.8 53.883zm-17.512 0l-14.424.254s.624-3.347 1.244-5.05c.56-1.537 2.294-4.67 2.294-4.67l10.886 9.466zm1.978-1.295L.11 20s2.414-4.206 4.337-5.655c1.732-1.306 6.63-2.61 6.63-2.61l22.19 40.854-.001-.001z"/></symbol><symbol viewBox="0 0 42 42" id="icon--processwire"><path d="M20.99 0C9.39 0 0 9.4 0 21v10.45l5.47 4.92V21c0-8.58 6.96-15.55 15.54-15.55S36.55 12.42 36.55 21c0 8.58-6.96 15.55-15.54 15.55h-2.93v-7.77h2.93c4.4 0 7.98-3.57 7.98-7.99s-3.57-7.99-7.98-7.99c-4.4 0-7.99 3.57-7.99 7.99V42h7.99C32.61 42 42 32.6 42 21S32.58 0 20.99 0zm0 17.32c1.91 0 3.47 1.56 3.47 3.47 0 1.91-1.55 3.47-3.47 3.47-1.91 0-3.47-1.55-3.47-3.47.01-1.91 1.56-3.47 3.47-3.47z"/></symbol><symbol viewBox="0 0 24 32" id="icon--reply"><path d="M12 5L0 14l12 9v-6c3.469 0 10.281 1.906 12 8.75 0-9.094-6.125-14.094-12-14.75V5z"/></symbol><symbol viewBox="0 0 28 32" id="icon--retweet"><path d="M19.973 23.977C18.305 25.23 16.25 26 14 26 8.476 26 4 21.523 4 16c0-1.424.306-2.774.844-4H2V8.892C.76 10.983 0 13.394 0 16c0 7.732 6.268 14 14 14 3.355 0 6.391-1.229 8.805-3.195L24 28v-6h-6l1.973 1.977zM28 16c0-7.732-6.268-14-14-14-3.356 0-6.392 1.228-8.802 3.198L4 4v6h6L8.026 8.026C9.696 6.771 11.75 6 14 6c5.523 0 10 4.476 10 10a9.911 9.911 0 0 1-.844 4H26v3.109c1.24-2.091 2-4.5 2-7.109z"/></symbol><symbol viewBox="0 0 28 32" id="icon--star"><path d="M28 12l-9.797-1.274L14 2l-4.204 8.726L0 12l7.202 6.527-1.858 9.471L14 23.348l8.658 4.65-1.861-9.471L28 12z"/></symbol><symbol viewBox="0 0 42 42" id="icon--twitter"><path d="M42 7.986c-1.558.722-3.239 1.197-4.92 1.32 1.796-1.082 3.116-2.755 3.838-4.796a20.202 20.202 0 0 1-5.519 2.156c-1.558-1.681-3.838-2.755-6.24-2.755a8.599 8.599 0 0 0-8.635 8.634c0 .722.123 1.321.238 1.919A24.478 24.478 0 0 1 3.009 5.469c-.721 1.32-1.197 2.755-1.197 4.321 0 3.001 1.558 5.642 3.838 7.2-1.443 0-2.755-.484-3.961-1.083v.123c0 4.199 3.001 7.676 6.954 8.397a7.062 7.062 0 0 1-2.28.361c-.598 0-1.082 0-1.681-.123 1.083 3.477 4.322 5.879 8.036 5.994-3.001 2.28-6.716 3.715-10.676 3.715-.722 0-1.32 0-2.042-.123 3.838 2.402 8.397 3.837 13.194 3.837 15.834.123 24.591-13.079 24.591-24.468v-1.083C39.36 11.225 40.918 9.79 42 7.986z"/></symbol></svg>